# xmcd
#
# Track frame offsets: 
#        150
#        3988
#        16082
#        31645
#        45467
#        60239
#        77174
#        91256
#        106181
#        124225
#        141418
#        153253
#        169432
#
# Disc length: 2338 seconds
#
# Revision: 1
# Processed by: cddbd v1.5.2PL0 Copyright (c) Steve Scherf et al.
# Submitted via: ExactAudioCopy v1.0b1
#
DISCID=9209200d
DTITLE=David Allan Coe - Songwriter Of The Tear
DYEAR=2001
DGENRE=Country
TTITLE0=Intro
TTITLE1=Someday You'll Have Children Of Your Own
TTITLE2=Then I Found You
TTITLE3=The Ghost Of Hank Williams
TTITLE4=Standing Too Close To The Flame
TTITLE5=DesperateMan
TTITLE6=The Only Thing Missing Is You
TTITLE7=Drinking Her Off My Mind
TTITLE8=The Walls In This House Are Too Thin
TTITLE9=It's Too Late Now
TTITLE10=Drink Canada Dry
TTITLE11=The Penny
TTITLE12=Outro
EXTD=
EXTT0=
EXTT1=
EXTT2=
EXTT3=
EXTT4=
EXTT5=
EXTT6=
EXTT7=
EXTT8=
EXTT9=
EXTT10=
EXTT11=
EXTT12=
PLAYORDER=
